<svg xmlns="http://www.w3.org/2000/svg" viewBox="0 0 512 512" fill="#ffffff" width="32" height="32">
  <path d="M256 16c-8.8 0-16 7.2-16 16v32H144c-8.8 0-16 7.2-16 16s7.2 16 16 16h32v32H112c-8.8 0-16 7.2-16 16s7.2 16 16 16h64v32H64c-8.8 0-16 7.2-16 16s7.2 16 16 16h112v32H32c-8.8 0-16 7.2-16 16s7.2 16 16 16h144v32H48c-8.8 0-16 7.2-16 16s7.2 16 16 16h128v32H96c-8.8 0-16 7.2-16 16s7.2 16 16 16h80v32H144c-8.8 0-16 7.2-16 16s7.2 16 16 16h112v32c0 8.8 7.2 16 16 16s16-7.2 16-16v-32h112c8.8 0 16-7.2 16-16s-7.2-16-16-16h-32v-32h80c8.8 0 16-7.2 16-16s-7.2-16-16-16H336v-32h128c8.8 0 16-7.2 16-16s-7.2-16-16-16H336v-32h144c8.8 0 16-7.2 16-16s-7.2-16-16-16H336v-32h112c8.8 0 16-7.2 16-16s-7.2-16-16-16H336v-32h64c8.8 0 16-7.2 16-16s-7.2-16-16-16H336V80h32c8.8 0 16-7.2 16-16s-7.2-16-16-16H272V16c0-8.8-7.2-16-16-16z"/>
</svg>